<svg width="102" height="22" viewBox="0 0 102 22" fill="none" xmlns="http://www.w3.org/2000/svg">
<circle cx="11" cy="11" r="11" fill="white"/>
<path d="M17 13.92V16H8.328V4.8H16.792V6.88H10.904V9.312H16.104V11.328H10.904V13.92H17ZM24.1184 7.264C25.185 7.264 26.0437 7.584 26.6944 8.224C27.3557 8.864 27.6864 9.81333 27.6864 11.072V16H25.1904V11.456C25.1904 10.7733 25.041 10.2667 24.7424 9.936C24.4437 9.59467 24.0117 9.424 23.4464 9.424C22.817 9.424 22.3157 9.62133 21.9424 10.016C21.569 10.4 21.3824 10.976 21.3824 11.744V16H18.8864V7.392H21.2704V8.4C21.601 8.03733 22.0117 7.76 22.5024 7.568C22.993 7.36533 23.5317 7.264 24.1184 7.264ZM38.9226 7.392V14.56C38.9226 16.1387 38.512 17.312 37.6906 18.08C36.8693 18.848 35.6693 19.232 34.0906 19.232C33.2586 19.232 32.4693 19.1307 31.7226 18.928C30.976 18.7253 30.3573 18.432 29.8666 18.048L30.8586 16.256C31.2213 16.5547 31.68 16.7893 32.2346 16.96C32.7893 17.1413 33.344 17.232 33.8986 17.232C34.7626 17.232 35.3973 17.0347 35.8026 16.64C36.2186 16.256 36.4266 15.6693 36.4266 14.88V14.512C35.776 15.2267 34.8693 15.584 33.7066 15.584C32.9173 15.584 32.192 15.4133 31.5306 15.072C30.88 14.72 30.3626 14.2293 29.9786 13.6C29.5946 12.9707 29.4026 12.2453 29.4026 11.424C29.4026 10.6027 29.5946 9.87733 29.9786 9.248C30.3626 8.61867 30.88 8.13333 31.5306 7.792C32.192 7.44 32.9173 7.264 33.7066 7.264C34.9546 7.264 35.904 7.67467 36.5546 8.496V7.392H38.9226ZM34.2026 13.536C34.864 13.536 35.4026 13.344 35.8186 12.96C36.2453 12.5653 36.4586 12.0533 36.4586 11.424C36.4586 10.7947 36.2453 10.288 35.8186 9.904C35.4026 9.50933 34.864 9.312 34.2026 9.312C33.5413 9.312 32.9973 9.50933 32.5706 9.904C32.144 10.288 31.9306 10.7947 31.9306 11.424C31.9306 12.0533 32.144 12.5653 32.5706 12.96C32.9973 13.344 33.5413 13.536 34.2026 13.536ZM41.2458 4.128H43.7418V16H41.2458V4.128ZM46.0583 7.392H48.5543V16H46.0583V7.392ZM47.3063 6.192C46.8476 6.192 46.4743 6.05867 46.1863 5.792C45.8983 5.52533 45.7543 5.19467 45.7543 4.8C45.7543 4.40533 45.8983 4.07467 46.1863 3.808C46.4743 3.54133 46.8476 3.408 47.3063 3.408C47.7649 3.408 48.1383 3.536 48.4263 3.792C48.7143 4.048 48.8583 4.368 48.8583 4.752C48.8583 5.168 48.7143 5.51467 48.4263 5.792C48.1383 6.05867 47.7649 6.192 47.3063 6.192ZM53.7668 16.128C53.0521 16.128 52.3534 16.0427 51.6708 15.872C50.9881 15.6907 50.4441 15.4667 50.0388 15.2L50.8708 13.408C51.2548 13.6533 51.7188 13.856 52.2628 14.016C52.8068 14.1653 53.3401 14.24 53.8628 14.24C54.9188 14.24 55.4468 13.9787 55.4468 13.456C55.4468 13.2107 55.3028 13.0347 55.0148 12.928C54.7268 12.8213 54.2841 12.7307 53.6868 12.656C52.9828 12.5493 52.4014 12.4267 51.9428 12.288C51.4841 12.1493 51.0841 11.904 50.7428 11.552C50.4121 11.2 50.2467 10.6987 50.2467 10.048C50.2467 9.504 50.4014 9.024 50.7108 8.608C51.0308 8.18133 51.4894 7.85067 52.0868 7.616C52.6948 7.38133 53.4094 7.264 54.2308 7.264C54.8388 7.264 55.4414 7.33333 56.0388 7.472C56.6468 7.6 57.1481 7.78133 57.5428 8.016L56.7108 9.792C55.9534 9.36533 55.1268 9.152 54.2308 9.152C53.6974 9.152 53.2974 9.22667 53.0308 9.376C52.7641 9.52533 52.6308 9.71733 52.6308 9.952C52.6308 10.2187 52.7748 10.4053 53.0628 10.512C53.3508 10.6187 53.8094 10.72 54.4388 10.816C55.1428 10.9333 55.7188 11.0613 56.1668 11.2C56.6148 11.328 57.0041 11.568 57.3348 11.92C57.6654 12.272 57.8308 12.7627 57.8308 13.392C57.8308 13.9253 57.6708 14.4 57.3508 14.816C57.0308 15.232 56.5614 15.5573 55.9428 15.792C55.3348 16.016 54.6094 16.128 53.7668 16.128ZM64.6028 7.264C65.6694 7.264 66.5281 7.584 67.1788 8.224C67.8401 8.864 68.1708 9.81333 68.1708 11.072V16H65.6748V11.456C65.6748 10.7733 65.5254 10.2667 65.2268 9.936C64.9281 9.59467 64.4961 9.424 63.9308 9.424C63.3014 9.424 62.8001 9.62133 62.4268 10.016C62.0534 10.4 61.8668 10.976 61.8668 11.744V16H59.3708V4.128H61.8668V8.288C62.1974 7.95733 62.5974 7.70667 63.0668 7.536C63.5361 7.35467 64.0481 7.264 64.6028 7.264ZM71.3773 16.128C70.9399 16.128 70.5719 15.9787 70.2733 15.68C69.9746 15.3813 69.8253 15.008 69.8253 14.56C69.8253 14.1013 69.9746 13.7333 70.2733 13.456C70.5719 13.168 70.9399 13.024 71.3773 13.024C71.8146 13.024 72.1826 13.168 72.4813 13.456C72.7799 13.7333 72.9293 14.1013 72.9293 14.56C72.9293 15.008 72.7799 15.3813 72.4813 15.68C72.1826 15.9787 71.8146 16.128 71.3773 16.128ZM79.8528 7.264C80.9194 7.264 81.7781 7.584 82.4288 8.224C83.0901 8.864 83.4208 9.81333 83.4208 11.072V16H80.9248V11.456C80.9248 10.7733 80.7754 10.2667 80.4768 9.936C80.1781 9.59467 79.7461 9.424 79.1808 9.424C78.5514 9.424 78.0501 9.62133 77.6768 10.016C77.3034 10.4 77.1168 10.976 77.1168 11.744V16H74.6208V7.392H77.0048V8.4C77.3354 8.03733 77.7461 7.76 78.2368 7.568C78.7274 7.36533 79.2661 7.264 79.8528 7.264ZM94.209 11.728C94.209 11.76 94.193 11.984 94.161 12.4H87.649C87.7663 12.9333 88.0437 13.3547 88.481 13.664C88.9183 13.9733 89.4623 14.128 90.113 14.128C90.561 14.128 90.9557 14.064 91.297 13.936C91.649 13.7973 91.9743 13.584 92.273 13.296L93.601 14.736C92.7903 15.664 91.6063 16.128 90.049 16.128C89.0783 16.128 88.2197 15.9413 87.473 15.568C86.7263 15.184 86.1503 14.656 85.745 13.984C85.3397 13.312 85.137 12.5493 85.137 11.696C85.137 10.8533 85.3343 10.096 85.729 9.424C86.1343 8.74133 86.6837 8.21333 87.377 7.84C88.081 7.456 88.865 7.264 89.729 7.264C90.5717 7.264 91.3343 7.44533 92.017 7.808C92.6997 8.17067 93.233 8.69333 93.617 9.376C94.0117 10.048 94.209 10.832 94.209 11.728ZM89.745 9.152C89.1797 9.152 88.705 9.312 88.321 9.632C87.937 9.952 87.7023 10.3893 87.617 10.944H91.857C91.7717 10.4 91.537 9.968 91.153 9.648C90.769 9.31733 90.2997 9.152 89.745 9.152ZM101.423 15.584C101.177 15.7653 100.873 15.904 100.511 16C100.159 16.0853 99.7854 16.128 99.3908 16.128C98.3668 16.128 97.5721 15.8667 97.0068 15.344C96.4521 14.8213 96.1748 14.0533 96.1748 13.04V9.504H94.8468V7.584H96.1748V5.488H98.6708V7.584H100.815V9.504H98.6708V13.008C98.6708 13.3707 98.7614 13.6533 98.9427 13.856C99.1348 14.048 99.4014 14.144 99.7428 14.144C100.137 14.144 100.473 14.0373 100.751 13.824L101.423 15.584Z" fill="#B18CFF"/>
</svg>
