<svg width="21" height="22" viewBox="0 0 21 22" fill="none" xmlns="http://www.w3.org/2000/svg">
<g clip-path="url(#clip0_52_0)">
<path d="M2.27563 1.61819C2.22834 1.66793 2.14843 1.77181 2.09503 1.8432C1.10235 3.13832 -0.0839799 5.12931 0.00489256 7.05092C0.155731 10.2684 4.56919 14.5448 5.91858 15.779C7.26838 17.0127 11.9256 21.0312 15.1952 20.9438C15.7402 20.9305 16.3179 20.8178 16.9115 20.6085C18.2816 20.1252 19.5185 19.2059 20.3041 18.5292C20.3041 18.5292 20.4733 18.3877 20.5385 18.3195C20.7028 18.145 20.8329 17.8903 20.936 17.541C20.9886 17.3625 21 17.1744 21 17.0484C21 16.908 20.9857 16.6361 20.892 16.3886C20.7636 16.0501 20.6164 15.8079 20.4403 15.645C20.3098 15.5259 17.3619 13.2537 17.3432 13.2409L17.3208 13.2265C17.161 13.1057 16.9942 13.0115 16.8246 12.9461C16.3803 12.7748 15.8882 12.768 15.4385 12.926C15.1528 13.0267 14.8955 13.1932 14.697 13.4041L13.6839 14.471C13.5889 14.5713 13.4124 14.6752 13.35 14.69C13.2844 14.7021 13.2387 14.7053 13.2094 14.7061L6.41024 8.48962C6.39393 8.47438 6.38577 8.45954 6.38129 8.44911C6.38455 8.43949 6.38863 8.43106 6.39067 8.42465C6.41553 8.37491 6.53294 8.21688 6.67971 8.06046L7.68217 6.99277C8.21255 6.43164 8.34423 5.55888 8.00668 4.87823C7.88642 4.63557 7.72172 4.45428 7.64548 4.36885L7.60594 4.32072C7.58637 4.29866 5.10446 1.619 4.99317 1.51832C4.71717 1.26604 4.28259 1.12967 3.66497 1.10079C3.32171 1.08475 2.89121 1.18422 2.64131 1.33703C2.48068 1.4361 2.36042 1.52835 2.27563 1.61819ZM4.14806 2.38949C4.28708 2.52826 6.54599 4.96246 6.66422 5.09001L6.74738 5.18908C6.78122 5.22638 6.86071 5.31421 6.90719 5.40727C7.02786 5.65113 6.98057 5.96879 6.78489 6.17615L5.7812 7.24505C5.66379 7.36979 5.37842 7.68905 5.26508 7.95497C5.19007 8.13225 5.15461 8.28667 5.1542 8.46596C5.16643 8.80849 5.31401 9.12775 5.5741 9.36881L12.4417 15.6478C12.7031 15.8865 13.083 15.9627 13.5714 15.874C13.9489 15.8055 14.3578 15.5247 14.5779 15.2929L15.5926 14.224C15.6603 14.1522 15.75 14.0952 15.8511 14.0591C16.0199 13.9998 16.2123 14.0026 16.3786 14.0667C16.4757 14.104 16.5564 14.1662 16.5829 14.1867C16.6082 14.2059 16.6285 14.22 16.6469 14.2312C16.9294 14.4466 19.4643 16.4067 19.6017 16.5206C19.6021 16.5214 19.662 16.5876 19.7464 16.8094C19.7582 16.8407 19.777 16.9329 19.777 17.048C19.777 17.131 19.7676 17.1852 19.7615 17.2048C19.6979 17.4198 19.6453 17.4952 19.6453 17.4968C19.6058 17.5357 19.5234 17.6027 19.5096 17.6144C18.7925 18.2316 17.6885 19.0559 16.4985 19.4754C16.028 19.6415 15.5796 19.7305 15.1638 19.7405C12.9301 19.8003 9.23581 17.1684 6.75146 14.897C4.2667 12.626 1.32942 9.19313 1.22669 6.99557C1.15167 5.41128 2.19898 3.70626 3.06121 2.5808L3.09423 2.53749C3.11339 2.51182 3.14804 2.46369 3.16598 2.44283C3.19656 2.41435 3.24222 2.38668 3.2785 2.36422C3.33272 2.33694 3.50109 2.29844 3.60627 2.30365C3.96746 2.3209 4.13461 2.38467 4.14806 2.38949Z" fill="white"/>
</g>
<defs>
<clipPath id="clip0_52_0">
<rect width="20.6608" height="21" fill="white" transform="translate(0 21.3525) rotate(-90)"/>
</clipPath>
</defs>
</svg>
