<svg width="19" height="19" viewBox="0 0 19 19" fill="none" xmlns="http://www.w3.org/2000/svg">
<path d="M16.6107 2.38932C15.07 0.848543 13.0214 0 10.8425 0C8.66351 0 6.61496 0.848543 5.07421 2.38932C3.53347 3.93007 2.68489 5.97862 2.68489 8.15753C2.68489 10.1497 3.39457 12.0325 4.69369 13.5183L0.163271 18.0487C-0.0543386 18.2663 -0.0543386 18.6191 0.163271 18.8368C0.272075 18.9456 0.414687 19 0.557261 19C0.699835 19 0.842484 18.9456 0.951251 18.8368L5.48171 14.3063C6.96746 15.6054 8.85031 16.3151 10.8425 16.3151C13.0214 16.3151 15.0699 15.4666 16.6107 13.9258C18.1514 12.3851 19 10.3365 19 8.15757C19 5.97862 18.1515 3.93007 16.6107 2.38932ZM15.8227 13.1378C13.0766 15.8839 8.6084 15.8839 5.86227 13.1378C3.11617 10.3917 3.11617 5.92347 5.86227 3.17738C7.23546 1.80418 9.03868 1.11781 10.8425 1.11781C12.6459 1.11781 14.4498 1.80452 15.8227 3.17738C18.5687 5.92344 18.5687 10.3917 15.8227 13.1378Z" fill="#212121" fill-opacity="0.4"/>
</svg>
