<svg width="23" height="24" viewbox="0 0 23 24" fill="none" xmlns="http://www.w3.org/2000/svg">
<g clip-path="url(#clip0_20_34)">
<path d="M11.254 18.7895H12.6284C12.6284 18.7895 13.0438 18.7415 13.2552 18.5029C13.4507 18.2839 13.4435 17.8729 13.4435 17.8729C13.4435 17.8729 13.4162 15.9483 14.273 15.6647C15.1169 15.3857 16.2008 17.5249 17.3495 18.3484C18.2178 18.971 18.8776 18.8345 18.8776 18.8345L21.9498 18.7895C21.9498 18.7895 23.557 18.686 22.7951 17.3674C22.7333 17.2593 22.3509 16.3923 20.5108 14.6102C18.5844 12.744 18.8431 13.047 21.1634 9.8203C22.5766 7.85515 23.1416 6.65506 22.9648 6.14202C22.7966 5.65298 21.7572 5.78199 21.7572 5.78199L18.3012 5.803C18.3012 5.803 18.0453 5.76699 17.8541 5.8855C17.6686 6.00251 17.5493 6.27253 17.5493 6.27253C17.5493 6.27253 17.0016 7.79364 16.2713 9.08674C14.7316 11.8154 14.1149 11.9595 13.8633 11.7899C13.2782 11.3954 13.4248 10.2028 13.4248 9.35676C13.4248 6.71206 13.8087 5.60948 12.6758 5.32446C12.2992 5.22995 12.0231 5.16695 11.0614 5.15645C9.82792 5.14295 8.78279 5.16095 8.19193 5.46247C7.79803 5.66349 7.49469 6.11202 7.68014 6.13752C7.90872 6.16902 8.42626 6.28303 8.70084 6.67306C9.05593 7.1756 9.04299 8.30668 9.04299 8.30668C9.04299 8.30668 9.24713 11.4194 8.56714 11.8064C8.09992 12.072 7.46019 11.5304 6.08728 9.05374C5.38429 7.78614 4.85237 6.38354 4.85237 6.38354C4.85237 6.38354 4.7503 6.12252 4.56773 5.98301C4.34634 5.8135 4.03581 5.75949 4.03581 5.75949L0.74945 5.78049C0.74945 5.78049 0.256352 5.7955 0.0752137 6.01901C-0.085798 6.21853 0.0622753 6.62956 0.0622753 6.62956C0.0622753 6.62956 2.63559 12.9105 5.54817 16.0773C8.22068 18.98 11.254 18.7895 11.254 18.7895Z" fill="#484848" fill-opacity="0.6"/>
</g>
</svg>
