<svg width="23" height="24" viewbox="0 0 23 24" fill="none" xmlns="http://www.w3.org/2000/svg">
<path d="M22.0225 5.34C21.3986 4.182 20.7216 3.969 19.343 3.888C17.9659 3.7905 14.5029 3.75 11.5029 3.75C8.49706 3.75 5.03269 3.7905 3.657 3.8865C2.28131 3.969 1.60281 4.1805 0.973188 5.34C0.330625 6.4965 0 8.4885 0 11.9955C0 11.9985 0 12 0 12C0 12.003 0 12.0045 0 12.0045V12.0075C0 15.4995 0.330625 17.5065 0.973188 18.651C1.60281 19.809 2.27988 20.019 3.65556 20.1165C5.03269 20.2005 8.49706 20.25 11.5029 20.25C14.5029 20.25 17.9659 20.2005 19.3444 20.118C20.723 20.0205 21.4001 19.8105 22.0239 18.6525C22.6723 17.508 23 15.501 23 12.009C23 12.009 23 12.0045 23 12.0015C23 12.0015 23 11.9985 23 11.997C23 8.4885 22.6722 6.4965 22.0225 5.34Z" fill="#484848" fill-opacity="0.6"/>
<path d="M8.625 16.5V7.5L15.8125 12L8.625 16.5Z" fill="white"/>
</svg>
